<svg width="24" height="24" viewBox="0 0 24 24" fill="none" xmlns="http://www.w3.org/2000/svg">
<path fill-rule="evenodd" clip-rule="evenodd" d="M22.91 2.38799C22.8497 2.2828 22.7628 2.19535 22.658 2.13443C22.5532 2.07352 22.4342 2.04129 22.313 2.04099L1.688 2.04299C1.55136 2.04269 1.41774 2.08314 1.30422 2.15917C1.19069 2.2352 1.10241 2.34336 1.05067 2.46982C0.998928 2.59628 0.986069 2.7353 1.01374 2.8691C1.04141 3.0029 1.10834 3.12542 1.206 3.22099L7.26 9.15999C7.36077 9.25874 7.48955 9.32402 7.62877 9.34692C7.768 9.36983 7.9109 9.34925 8.038 9.28799L15.65 5.63099C15.8092 5.54895 15.9931 5.5289 16.1662 5.57472C16.3393 5.62053 16.4893 5.72896 16.587 5.87899C16.6781 6.03308 16.7056 6.21661 16.6636 6.39063C16.6216 6.56465 16.5134 6.71544 16.362 6.81099L9.218 11.331C9.09688 11.4082 9.00287 11.5213 8.9491 11.6545C8.89532 11.7877 8.88445 11.9343 8.918 12.074L11.02 20.766C11.0521 20.8988 11.1231 21.0191 11.2239 21.1114C11.3248 21.2036 11.4508 21.2637 11.586 21.284C11.6201 21.2894 11.6545 21.292 11.689 21.292C11.8081 21.2919 11.9252 21.2608 12.0287 21.2017C12.1321 21.1426 12.2184 21.0576 12.279 20.955L22.903 3.07999C22.9652 2.97554 22.9986 2.85648 22.9998 2.73493C23.0011 2.61338 22.9701 2.49367 22.91 2.38799Z" fill="black"/>
</svg>
