<svg width="12" height="12" viewBox="0 0 12 12" fill="none" xmlns="http://www.w3.org/2000/svg">
<path d="M8.75099 1.50002C8.75106 1.56569 8.73815 1.63072 8.71301 1.69139C8.68787 1.75205 8.65099 1.80715 8.60449 1.85352L4.45649 6.00002L8.60449 10.1465C8.65224 10.1926 8.69033 10.2478 8.71654 10.3088C8.74274 10.3698 8.75654 10.4354 8.75711 10.5018C8.75769 10.5682 8.74504 10.634 8.7199 10.6955C8.69476 10.7569 8.65763 10.8128 8.61069 10.8597C8.56374 10.9067 8.50791 10.9438 8.44647 10.9689C8.38502 10.9941 8.31918 11.0067 8.25279 11.0061C8.1864 11.0056 8.12079 10.9918 8.05979 10.9656C7.99878 10.9394 7.94361 10.9013 7.89749 10.8535L3.39549 6.35352C3.30526 6.25793 3.255 6.13146 3.255 6.00002C3.255 5.86858 3.30526 5.74211 3.39549 5.64652L7.89749 1.14652C7.96741 1.07661 8.0565 1.02901 8.15347 1.00973C8.25045 0.990445 8.35097 1.00035 8.44232 1.03818C8.53367 1.07602 8.61175 1.14009 8.66669 1.22229C8.72163 1.3045 8.75097 1.40114 8.75099 1.50002Z" fill="black"/>
</svg>
