<svg width="12" height="12" viewBox="0 0 12 12" fill="none" xmlns="http://www.w3.org/2000/svg">
<path d="M5.99999 8.75101C5.86739 8.75099 5.74024 8.69829 5.64649 8.60451L1.14649 4.10251C1.05541 4.00821 1.00501 3.88191 1.00615 3.75081C1.00729 3.61971 1.05988 3.49431 1.15258 3.4016C1.24528 3.3089 1.37069 3.25632 1.50179 3.25518C1.63289 3.25404 1.75919 3.30443 1.85349 3.39551L5.99999 7.54351L10.1465 3.39551C10.2408 3.30443 10.3671 3.25404 10.4982 3.25518C10.6293 3.25632 10.7547 3.3089 10.8474 3.4016C10.9401 3.49431 10.9927 3.61971 10.9938 3.75081C10.995 3.88191 10.9446 4.00821 10.8535 4.10251L6.35349 8.60451C6.25974 8.69829 6.13259 8.75099 5.99999 8.75101Z" fill="black"/>
</svg>
