<svg width="22" height="22" viewBox="0 0 22 22" fill="none" xmlns="http://www.w3.org/2000/svg">
<path d="M16.665 20.6342C16.4993 20.6345 16.3367 20.5895 16.1947 20.504L11 17.3938L5.80525 20.504C5.65242 20.5953 5.4763 20.6402 5.2984 20.6331C5.1205 20.6259 4.94853 20.5672 4.80348 20.4639C4.65844 20.3607 4.54659 20.2174 4.48162 20.0517C4.41664 19.8859 4.40134 19.7048 4.43758 19.5305L5.69341 13.5318L1.22375 9.5471C1.09256 9.43034 0.997707 9.27832 0.950505 9.10916C0.903302 8.94 0.905738 8.76083 0.957523 8.59302C1.00931 8.4252 1.10825 8.27581 1.24257 8.16267C1.37689 8.04952 1.54091 7.97738 1.71508 7.95485L7.72292 7.1711L10.1686 1.89568C10.2422 1.73719 10.3595 1.60303 10.5068 1.50901C10.6541 1.415 10.8253 1.36505 11 1.36505C11.1747 1.36505 11.3459 1.415 11.4932 1.50901C11.6405 1.60303 11.7578 1.73719 11.8314 1.89568L14.2771 7.1711L20.2849 7.95485C20.4591 7.97738 20.6231 8.04952 20.7574 8.16267C20.8917 8.27581 20.9907 8.4252 21.0425 8.59302C21.0943 8.76083 21.0967 8.94 21.0495 9.10916C21.0023 9.27832 20.9074 9.43034 20.7762 9.5471L16.3066 13.5318L17.5624 19.5305C17.5903 19.6639 17.5882 19.8018 17.5561 19.9342C17.524 20.0667 17.4628 20.1903 17.377 20.2961C17.2911 20.4019 17.1827 20.4872 17.0597 20.5459C16.9367 20.6045 16.8022 20.635 16.6659 20.6351L16.665 20.6342ZM11 15.4092C11.1659 15.4091 11.3288 15.4541 11.4712 15.5393L15.3395 17.8567L14.4036 13.3898C14.3702 13.2319 14.3792 13.0681 14.4296 12.9148C14.48 12.7615 14.57 12.6243 14.6905 12.5171L18.0602 9.5141L13.5392 8.92376C13.3859 8.90386 13.2401 8.84553 13.1154 8.75417C12.9907 8.66282 12.8912 8.54142 12.826 8.40127L11 4.46143L9.174 8.40035C9.10874 8.54062 9.00903 8.6621 8.88417 8.75346C8.75931 8.84482 8.61336 8.90309 8.45992 8.92285L3.93983 9.51318L7.3095 12.5162C7.42987 12.6233 7.5198 12.7604 7.57018 12.9135C7.62056 13.0666 7.62961 13.2302 7.59641 13.3879L6.66142 17.8548L10.5297 15.5384C10.672 15.4537 10.8345 15.409 11 15.4092Z" fill="black"/>
</svg>
