<svg width="22" height="22" viewBox="0 0 22 22" fill="none" xmlns="http://www.w3.org/2000/svg">
<path d="M11.8534 3.78766C12.2146 3.39546 12.6679 3.09946 13.1722 2.92642C13.6765 2.75337 14.216 2.70875 14.7419 2.79657C15.2678 2.88439 15.7635 3.10189 16.1842 3.42941C16.605 3.75693 16.9374 4.18414 17.1516 4.67242C17.3658 5.1607 17.4548 5.69465 17.4108 6.22601C17.3668 6.75737 17.191 7.26938 16.8994 7.71575C16.6078 8.16213 16.2096 8.52879 15.7407 8.7826C15.2718 9.0364 14.747 9.16935 14.2138 9.16941H14.1588M20.1667 16.0838V15.4532C20.1667 14.5154 19.7942 13.616 19.1312 12.9528C18.4682 12.2896 17.5689 11.9169 16.6311 11.9167H13.2944" stroke="black" stroke-width="1.83333" stroke-miterlimit="10" stroke-linecap="round"/>
<path d="M11.0037 8.71016C11.0037 9.34467 10.8155 9.96494 10.463 10.4925C10.1105 11.0201 9.60951 11.4313 9.02332 11.6742C8.43713 11.917 7.79209 11.9806 7.16976 11.8569C6.54742 11.7332 5.97575 11.4277 5.52702 10.9791C5.07829 10.5305 4.77266 9.95894 4.64876 9.33664C4.52486 8.71435 4.58827 8.06929 4.83096 7.48302C5.07365 6.89676 5.48472 6.39562 6.01221 6.04298C6.5397 5.69033 7.15991 5.50201 7.79442 5.50183C8.64524 5.50207 9.46116 5.84017 10.0628 6.4418C10.6644 7.04343 11.0034 7.85934 11.0037 8.71016Z" stroke="black" stroke-width="1.83333" stroke-miterlimit="10"/>
<path d="M13.7473 18.8338V18.2041C13.7474 17.7396 13.656 17.2796 13.4783 16.8504C13.3006 16.4213 13.0402 16.0313 12.7118 15.7028C12.3834 15.3743 11.9935 15.1137 11.5643 14.9359C11.1352 14.7582 10.6752 14.6667 10.2108 14.6667H5.36984C4.90534 14.6667 4.44539 14.7582 4.01626 14.9359C3.58714 15.1137 3.19724 15.3743 2.86883 15.7028C2.54042 16.0313 2.27994 16.4213 2.10227 16.8504C1.9246 17.2796 1.83322 17.7396 1.83334 18.2041V18.8338" stroke="black" stroke-width="1.83333" stroke-linecap="round" stroke-linejoin="round"/>
</svg>
