<svg width="18" height="18" viewBox="0 0 18 18" fill="none" xmlns="http://www.w3.org/2000/svg">
<g clip-path="url(#clip0_15_8)">
<path d="M13.5008 0.75H4.50076C3.50657 0.751191 2.55343 1.14666 1.85043 1.84966C1.14742 2.55267 0.751954 3.5058 0.750763 4.5V11.2538C0.751954 12.2479 1.14742 13.2011 1.85043 13.9041C2.55343 14.6071 3.50657 15.0026 4.50076 15.0037H6.38626L8.47801 17.0377C8.618 17.1738 8.80554 17.2499 9.00076 17.2499C9.19599 17.2499 9.38352 17.1738 9.52351 17.0377L11.6138 15.0037H13.5008C14.495 15.0026 15.4481 14.6071 16.1511 13.9041C16.8541 13.2011 17.2496 12.2479 17.2508 11.2538V4.5C17.2496 3.5058 16.8541 2.55267 16.1511 1.84966C15.4481 1.14666 14.495 0.751191 13.5008 0.75ZM15.7508 11.2538C15.7502 11.8503 15.5129 12.4223 15.0911 12.8441C14.6693 13.2659 14.0973 13.5032 13.5008 13.5037H11.2988C11.1844 13.5038 11.0716 13.5299 10.9689 13.5802C10.8662 13.6305 10.7764 13.7037 10.7063 13.794L9.00076 15.453L7.29376 13.794C7.22367 13.7037 7.13384 13.6305 7.03114 13.5802C6.92845 13.5299 6.81562 13.5038 6.70126 13.5037H4.50001C3.90346 13.5032 3.33151 13.2659 2.90968 12.8441C2.48785 12.4223 2.25061 11.8503 2.25001 11.2538V4.5C2.25061 3.90345 2.48785 3.3315 2.90968 2.90967C3.33151 2.48784 3.90346 2.2506 4.50001 2.25H13.5C14.0966 2.2506 14.6685 2.48784 15.0903 2.90967C15.5122 3.3315 15.7494 3.90345 15.75 4.5L15.7508 11.2538ZM9.00076 10.0088C8.81839 10.0086 8.64008 10.0626 8.48838 10.1638C8.33669 10.265 8.21843 10.409 8.14857 10.5774C8.07871 10.7459 8.0604 10.9313 8.09594 11.1101C8.13148 11.289 8.21928 11.4533 8.34824 11.5823C8.47719 11.7112 8.6415 11.799 8.82037 11.8346C8.99924 11.8701 9.18464 11.8518 9.3531 11.7819C9.52156 11.7121 9.66551 11.5938 9.76673 11.4421C9.86796 11.2904 9.92191 11.1121 9.92176 10.9297C9.92156 10.6853 9.82439 10.451 9.65157 10.2782C9.47875 10.1054 9.24441 10.0082 9.00001 10.008L9.00076 10.0088ZM9.00076 3.921C8.87001 3.91999 8.74044 3.94583 8.62008 3.99692C8.49972 4.048 8.39112 4.12325 8.30101 4.218C8.2221 4.30151 8.16136 4.40049 8.12263 4.50866C8.0839 4.61684 8.06803 4.73188 8.07601 4.8465L8.33626 8.49225C8.35664 8.65391 8.43531 8.80259 8.55752 8.91036C8.67973 9.01813 8.83707 9.0776 9.00001 9.0776C9.16296 9.0776 9.3203 9.01813 9.44251 8.91036C9.56472 8.80259 9.64339 8.65391 9.66376 8.49225L9.92476 4.84725C9.93284 4.73262 9.91701 4.61756 9.87828 4.50937C9.83955 4.40118 9.77876 4.30221 9.69976 4.21875C9.60977 4.12379 9.50122 4.04836 9.38084 3.99714C9.26046 3.94592 9.13083 3.92 9.00001 3.921H9.00076Z" fill="black"/>
</g>
<defs>
<clipPath id="clip0_15_8">
<rect width="18" height="18" fill="white"/>
</clipPath>
</defs>
</svg>
