<svg width="18" height="18" viewBox="0 0 18 18" fill="none" xmlns="http://www.w3.org/2000/svg">
<g clip-path="url(#clip0_15_6)">
<path d="M9.00012 3.375C9.19903 3.375 9.3898 3.29598 9.53045 3.15533C9.6711 3.01468 9.75012 2.82391 9.75012 2.625V1.5C9.75012 1.30109 9.6711 1.11032 9.53045 0.96967C9.3898 0.829018 9.19903 0.75 9.00012 0.75C8.80121 0.75 8.61044 0.829018 8.46979 0.96967C8.32914 1.11032 8.25012 1.30109 8.25012 1.5V2.625C8.25013 2.82391 8.32915 3.01467 8.4698 3.15532C8.61045 3.29597 8.80121 3.37499 9.00012 3.375ZM3.96179 5.02259C4.03143 5.09222 4.1141 5.14746 4.20509 5.18515C4.29607 5.22283 4.39359 5.24223 4.49207 5.24223C4.59055 5.24223 4.68807 5.22283 4.77905 5.18514C4.87004 5.14746 4.95271 5.09222 5.02234 5.02258C5.09198 4.95294 5.14722 4.87027 5.18491 4.77929C5.22259 4.6883 5.24199 4.59079 5.24199 4.49231C5.24199 4.39382 5.22259 4.29631 5.1849 4.20532C5.14722 4.11434 5.09198 4.03167 5.02234 3.96203L4.22693 3.16628C4.08614 3.02643 3.89564 2.94808 3.69719 2.94841C3.49874 2.94874 3.30851 3.02772 3.16818 3.16805C3.02785 3.30837 2.94886 3.4986 2.94853 3.69706C2.94819 3.89551 3.02653 4.086 3.16638 4.2268L3.96179 5.02259ZM3.37512 9C3.37512 8.80109 3.2961 8.61032 3.15545 8.46967C3.0148 8.32902 2.82403 8.25 2.62512 8.25H1.50012C1.30121 8.25 1.11044 8.32902 0.969792 8.46967C0.82914 8.61032 0.750122 8.80109 0.750122 9C0.750122 9.19891 0.82914 9.38968 0.969792 9.53033C1.11044 9.67098 1.30121 9.75 1.50012 9.75H2.62512C2.82403 9.75 3.0148 9.67098 3.15545 9.53033C3.2961 9.38968 3.37512 9.19891 3.37512 9ZM3.96179 12.9774L3.16638 13.7732C3.09675 13.8428 3.04151 13.9255 3.00382 14.0165C2.96613 14.1074 2.94674 14.205 2.94674 14.3034C2.94674 14.4019 2.96614 14.4994 3.00382 14.5904C3.04151 14.6814 3.09675 14.7641 3.16639 14.8337C3.23602 14.9033 3.31869 14.9586 3.40968 14.9963C3.50066 15.034 3.59818 15.0534 3.69666 15.0534C3.79514 15.0534 3.89266 15.034 3.98364 14.9963C4.07463 14.9586 4.1573 14.9033 4.22693 14.8337L5.02234 14.038C5.16298 13.8973 5.24199 13.7066 5.24199 13.5077C5.24199 13.3088 5.16298 13.118 5.02234 12.9774C4.88171 12.8368 4.69096 12.7578 4.49207 12.7578C4.29318 12.7578 4.10243 12.8368 3.96179 12.9774ZM9.00012 14.625C8.80121 14.625 8.61045 14.704 8.4698 14.8447C8.32915 14.9853 8.25013 15.1761 8.25012 15.375V16.5C8.25012 16.6989 8.32914 16.8897 8.46979 17.0303C8.61044 17.171 8.80121 17.25 9.00012 17.25C9.19903 17.25 9.3898 17.171 9.53045 17.0303C9.6711 16.8897 9.75012 16.6989 9.75012 16.5V15.375C9.75012 15.1761 9.6711 14.9853 9.53045 14.8447C9.3898 14.704 9.19903 14.625 9.00012 14.625ZM14.0381 12.9774C13.8975 12.8368 13.7067 12.7578 13.5078 12.7578C13.3089 12.7578 13.1182 12.8368 12.9775 12.9774C12.8369 13.1181 12.7579 13.3088 12.7579 13.5077C12.7579 13.7066 12.8369 13.8973 12.9775 14.038L13.773 14.8337C13.9138 14.9732 14.1042 15.0512 14.3024 15.0507C14.5007 15.0502 14.6906 14.9712 14.8308 14.8311C14.971 14.6909 15.05 14.5009 15.0505 14.3027C15.051 14.1044 14.973 13.9141 14.8335 13.7732L14.0381 12.9774ZM16.5001 8.25H15.3751C15.1762 8.25 14.9854 8.32902 14.8448 8.46967C14.7041 8.61032 14.6251 8.80109 14.6251 9C14.6251 9.19891 14.7041 9.38968 14.8448 9.53033C14.9854 9.67098 15.1762 9.75 15.3751 9.75H16.5001C16.699 9.75 16.8898 9.67098 17.0305 9.53033C17.1711 9.38968 17.2501 9.19891 17.2501 9C17.2501 8.80109 17.1711 8.61032 17.0305 8.46967C16.8898 8.32902 16.699 8.25 16.5001 8.25ZM13.5078 5.24231C13.6063 5.24246 13.7039 5.22311 13.7949 5.1854C13.8859 5.14769 13.9685 5.09234 14.0381 5.02256L14.8335 4.22681C14.9727 4.08588 15.0504 3.89561 15.0498 3.69753C15.0492 3.49946 14.9702 3.30968 14.8302 3.16962C14.6901 3.02955 14.5003 2.95059 14.3023 2.94996C14.1042 2.94933 13.9139 3.02709 13.773 3.16626L12.9776 3.96201C12.8727 4.0669 12.8013 4.20052 12.7724 4.34599C12.7435 4.49145 12.7583 4.64223 12.8151 4.77925C12.8718 4.91628 12.9679 5.0334 13.0912 5.11581C13.2145 5.19822 13.3595 5.24228 13.5078 5.24231ZM9.00012 4.5C8.11011 4.5 7.24008 4.76392 6.50006 5.25839C5.76003 5.75285 5.18326 6.45566 4.84266 7.27792C4.50207 8.10019 4.41296 9.00499 4.58659 9.87791C4.76022 10.7508 5.18881 11.5526 5.81814 12.182C6.44748 12.8113 7.2493 13.2399 8.12222 13.4135C8.99513 13.5872 9.89993 13.4981 10.7222 13.1575C11.5445 12.8169 12.2473 12.2401 12.7417 11.5001C13.2362 10.76 13.5001 9.89002 13.5001 9C13.4988 7.80693 13.0243 6.66309 12.1807 5.81946C11.337 4.97583 10.1932 4.5013 9.00012 4.5ZM9.00012 12C8.40678 12 7.82676 11.8241 7.33341 11.4944C6.84006 11.1648 6.45555 10.6962 6.22848 10.1481C6.00142 9.59987 5.94201 8.99667 6.05777 8.41473C6.17352 7.83279 6.45924 7.29824 6.8788 6.87868C7.29836 6.45912 7.83291 6.1734 8.41485 6.05764C8.99679 5.94189 9.59999 6.0013 10.1482 6.22836C10.6964 6.45542 11.1649 6.83994 11.4945 7.33329C11.8242 7.82664 12.0001 8.40666 12.0001 9C11.9992 9.79537 11.6829 10.5579 11.1204 11.1203C10.558 11.6827 9.79549 11.9991 9.00012 12Z" fill="black"/>
</g>
<defs>
<clipPath id="clip0_15_6">
<rect width="18" height="18" fill="white"/>
</clipPath>
</defs>
</svg>
