<svg width="62" height="62" viewBox="0 0 62 62" fill="none" xmlns="http://www.w3.org/2000/svg">
<g clip-path="url(#clip0_6_9)">
<path d="M60.8542 31C60.8542 47.488 47.488 60.8542 31 60.8542C14.512 60.8542 1.14584 47.488 1.14584 31C1.14584 14.512 14.512 1.14584 31 1.14584C47.488 1.14584 60.8542 14.512 60.8542 31Z" fill="white" stroke="black"/>
<path d="M30.5964 22.5119L30.9999 23.0634L31.4035 22.512C32.141 21.5044 33.1036 20.6829 34.2147 20.113C35.3249 19.5434 36.5527 19.2408 37.8004 19.2292C39.241 19.2327 40.6518 19.6401 41.8725 20.4051L41.8751 20.4067C45.8094 22.8398 47.1796 28.2589 44.8902 32.5099L44.8901 32.51C44.4336 33.3582 43.5775 34.4032 42.4703 35.5454C41.3699 36.6806 40.048 37.8851 38.6864 39.0513C35.9635 41.3833 33.1041 43.5432 31.5904 44.6608L31.59 44.661C31.4191 44.7875 31.212 44.8558 30.9994 44.8558C30.7867 44.8558 30.5797 44.7875 30.4087 44.661L30.4084 44.6608C28.8953 43.5432 26.0362 41.3833 23.3135 39.0513C21.9519 37.8851 20.63 36.6806 19.5297 35.5454C18.4225 34.4032 17.5664 33.3582 17.1099 32.51L17.1098 32.5099C14.8209 28.2588 16.19 22.8397 20.1243 20.4067L20.1243 20.4067L20.1267 20.4052C21.3479 19.6404 22.7589 19.233 24.1997 19.2292C25.4474 19.2404 26.6753 19.5429 27.7856 20.1124C28.8967 20.6823 29.8592 21.504 30.5964 22.5119Z" fill="white" stroke="black"/>
</g>
<defs>
<clipPath id="clip0_6_9">
<rect width="62" height="62" fill="white"/>
</clipPath>
</defs>
</svg>
